<?xml version="1.0" encoding="iso-8859-1"?>
<!-- Uploaded to: SVG Repo, www.svgrepo.com, Generator: SVG Repo Mixer Tools -->
<svg fill="url(#grad1)" height="800px" width="800px" version="1.1" id="Layer_1" xmlns="http://www.w3.org/2000/svg" xmlns:xlink="http://www.w3.org/1999/xlink" 
	 viewBox="0 0 512 358" xml:space="preserve">
<linearGradient id="grad1" x1="0%" y1="0%" x2="0%" y2="100%">
	<stop offset="0%" style="stop-color:#85a16a;stop-opacity:1" />
	<stop offset="100%" style="stop-color:#6a8054;stop-opacity:1" />
</linearGradient>
<path d="M495.304,416.418h-21.884c29.657-59.567,17.715-128.951-17.241-171.085c-18.945-24.698-28.21-55.464-26.092-86.694
	c3.444-50.807-36.181-96.447-89.67-96.447c-45.57,0-91.552,32.545-91.552,105.256c0,36.119,11.661,70.274,33.722,98.771
	c0.117,0.152,0.237,0.302,0.359,0.449c33.733,43.971,35.152,104.37,4.313,149.749h-40.979
	c27.165-54.56,21.543-121.001-16.882-170.638c-0.117-0.151-0.237-0.301-0.358-0.446c-18.945-24.698-28.21-55.464-26.092-86.694
	c3.444-50.807-36.181-96.447-89.67-96.447c-45.57,0-91.552,32.545-91.552,105.256c0,38.783,14.379,75.508,34.081,99.221
	c33.733,43.971,35.152,104.37,4.313,149.749H16.696C7.475,416.417,0,423.893,0,433.113c0,9.22,7.475,16.696,16.696,16.696
	c18.805,0,459.815,0,478.609,0c9.22,0,16.696-7.475,16.696-16.696C512,423.893,504.525,416.418,495.304,416.418z M133.887,416.418
	c31.055-45.697,29.289-106.438-4.673-150.196c-22.062-28.498-33.723-62.653-33.723-98.773c0-9.22,7.475-16.696,16.696-16.696
	s16.696,7.475,16.696,16.696c0,27.74,8.711,55.09,26.749,78.332c38.424,49.637,44.048,116.078,16.883,170.638h-38.627V416.418z
	 M361.027,416.418c31.055-45.697,29.289-106.439-4.673-150.196c-22.062-28.498-33.723-62.653-33.723-98.773
	c0-9.22,7.475-16.696,16.696-16.696c9.22,0,16.696,7.475,16.696,16.696c0,28.471,9.127,55.395,26.403,77.9
	c0.118,0.141,0.234,0.286,0.347,0.432c38.424,49.637,44.048,116.078,16.883,170.638h-38.628V416.418z"/>
</svg>